<?xml version="1.0" encoding="UTF-8"?>
<svg version="1.1" xmlns="http://www.w3.org/2000/svg" width="293" height="88">
<path d="M0 0 C96.69 0 193.38 0 293 0 C293 29.04 293 58.08 293 88 C196.31 88 99.62 88 0 88 C0 58.96 0 29.92 0 0 Z " fill="#E7A171" transform="translate(0,0)"/>
<path d="M0 0 C52.8 0 105.6 0 160 0 C160 20.79 160 41.58 160 63 C137.28058778 63.16043524 137.28058778 63.16043524 127.58984375 63.1953125 C120.97952417 63.21921601 114.36942641 63.24748208 107.75927734 63.30175781 C102.42949621 63.3452462 97.09995297 63.3691437 91.77000809 63.37950897 C89.73743572 63.38689492 87.70487624 63.40131798 85.67240524 63.42292023 C82.82347312 63.45199369 79.97552166 63.45595432 77.12646484 63.45410156 C75.86842041 63.47567322 75.86842041 63.47567322 74.58496094 63.49768066 C69.15287441 63.45950187 66.13501197 62.61322913 62 59 C61.625 56.25 61.625 56.25 62 54 C64.64 54 67.28 54 70 54 C70 53.01 70 52.02 70 51 C69.01 51 68.02 51 67 51 C67 48.69 67 46.38 67 44 C70.465 43.505 70.465 43.505 74 43 C74 43.66 74 44.32 74 45 C74.99 45 75.98 45 77 45 C77.99 46.98 78.98 48.96 80 51 C80.66 51 81.32 51 82 51 C85.63 43.41 89.26 35.82 93 28 C93.66 28 94.32 28 95 28 C97.29612756 44.70842825 97.29612756 44.70842825 97 53 C99.64 52.67 102.28 52.34 105 52 C104.34 51.01 103.68 50.02 103 49 C102.52929687 46.95385742 102.52929687 46.95385742 102.21875 44.60546875 C102.09991455 43.73817139 101.9810791 42.87087402 101.85864258 41.97729492 C101.74029053 41.0566626 101.62193848 40.13603027 101.5 39.1875 C101.24351499 37.29166323 100.98700448 35.39582991 100.73046875 33.5 C100.60720215 32.56800781 100.48393555 31.63601562 100.35693359 30.67578125 C99.86782196 27.00911674 99.34141347 23.34863152 98.8125 19.6875 C98.54166667 17.79166667 98.27083333 15.89583333 98 14 C97.34 14 96.68 14 96 14 C95.83636963 14.53367187 95.67273926 15.06734375 95.50415039 15.6171875 C93.58475634 21.64454105 91.16416086 27.29758691 88.4375 33 C88.03853516 33.85722656 87.63957031 34.71445312 87.22851562 35.59765625 C86.84244141 36.41105469 86.45636719 37.22445312 86.05859375 38.0625 C85.71111084 38.79597656 85.36362793 39.52945313 85.00561523 40.28515625 C84 42 84 42 82 43 C81.58637207 42.15703369 81.17274414 41.31406738 80.74658203 40.44555664 C79.21199075 37.32530723 77.67206709 34.20781287 76.12841797 31.09204102 C75.46088644 29.74187323 74.79551094 28.39063728 74.13232422 27.03833008 C73.17978013 25.09693416 72.21959835 23.1594869 71.2578125 21.22265625 C70.6817627 20.05484619 70.10571289 18.88703613 69.51220703 17.68383789 C68.27627679 14.90492504 68.27627679 14.90492504 66 14 C66.0825 15.03125 66.165 16.0625 66.25 17.125 C66.29699144 23.63331457 63.93324296 29.85504915 62 36 C57.37124201 33.07391865 54.90349693 30.64559509 52 26 C50.70896357 24.6256709 49.3743291 23.29103643 48 22 C46.7934375 20.700625 46.7934375 20.700625 45.5625 19.375 C40.00701681 14.22601558 33.85482269 14.48936495 26.609375 14.6953125 C20.98970795 15.16969998 18.34852848 16.43412698 14.48046875 20.66015625 C11.01782883 25.30562633 10.27995423 29.52492304 10.58984375 35.25390625 C11.36693165 40.45669478 12.78517136 44.77404156 16.5546875 48.5625 C22.52850899 52.86980476 29.89064597 53.77183912 37 55 C36.42655063 57.86724686 36.1385485 58.8614515 34 61 C34.99 61.66 35.98 62.32 37 63 C24.79 63 12.58 63 0 63 C0 42.21 0 21.42 0 0 Z " fill="#EA6C24" transform="translate(0,0)"/>
<path d="M0 0 C29.37 0 58.74 0 89 0 C89 21.12 89 42.24 89 64 C59.63 64 30.26 64 0 64 C0 42.88 0 21.76 0 0 Z " fill="#055A9E" transform="translate(204,0)"/>
<path d="M0 0 C67.32 0 134.64 0 204 0 C204 1.98 204 3.96 204 6 C205.32 6 206.64 6 208 6 C207.67 6.66 207.34 7.32 207 8 C206.01 7.67 205.02 7.34 204 7 C204 8.32 204 9.64 204 11 C204.99 11.33 205.98 11.66 207 12 C206.01 12 205.02 12 204 12 C204 15.63 204 19.26 204 23 C136.68 23 69.36 23 0 23 C0 15.41 0 7.82 0 0 Z " fill="#B3571F" transform="translate(0,65)"/>
<path d="M0 0 C29.37 0 58.74 0 89 0 C89 0.33 89 0.66 89 1 C64.91 1 40.82 1 16 1 C15.34 4.96 14.68 8.92 14 13 C21.26 13.33 28.52 13.66 36 14 C36 16.31 36 18.62 36 21 C35.5877417 20.5155542 35.1754834 20.0311084 34.75073242 19.53198242 C32.66668126 17.70832867 31.71459137 17.59077411 28.98828125 17.48828125 C28.23095703 17.45283203 27.47363281 17.41738281 26.69335938 17.38085938 C25.90767578 17.35830078 25.12199219 17.33574219 24.3125 17.3125 C23.51521484 17.27833984 22.71792969 17.24417969 21.89648438 17.20898438 C19.93148096 17.12661896 17.96576304 17.06162933 16 17 C16 21.62 16 26.24 16 31 C16.66 30.67 17.32 30.34 18 30 C18 28.35 18 26.7 18 25 C18.69867188 24.95101563 19.39734375 24.90203125 20.1171875 24.8515625 C21.02726562 24.77679687 21.93734375 24.70203125 22.875 24.625 C24.23238281 24.52058594 24.23238281 24.52058594 25.6171875 24.4140625 C28.17941903 24.20431868 28.17941903 24.20431868 30 22 C31.32 22 32.64 22 34 22 C34 22.66 34 23.32 34 24 C35.98 23.67 37.96 23.34 40 23 C40 22.01 40 21.02 40 20 C40.66 20 41.32 20 42 20 C42.33 34.19 42.66 48.38 43 63 C58.18 63 73.36 63 89 63 C89 63.33 89 63.66 89 64 C59.63 64 30.26 64 0 64 C0 42.88 0 21.76 0 0 Z " fill="#0B79BC" transform="translate(204,0)"/>
<path d="M0 0 C29.37 0 58.74 0 89 0 C89 7.59 89 15.18 89 23 C59.63 23 30.26 23 0 23 C0 17.72 0 12.44 0 7 C1.32 6.67 2.64 6.34 4 6 C2.68 6 1.36 6 0 6 C0 4.02 0 2.04 0 0 Z " fill="#0B4A78" transform="translate(204,65)"/>
<path d="M0 0 C13.86 0 27.72 0 42 0 C42 20.46 42 40.92 42 62 C38.7 62 35.4 62 32 62 C31.34 60.02 30.68 58.04 30 56 C29.32453125 56.19078125 28.6490625 56.3815625 27.953125 56.578125 C25.27440054 57.24393513 22.75409426 57.79279542 20 58 C17.375 56.25 17.375 56.25 16 54 C16 53.34 16 52.68 16 52 C20.455 51.505 20.455 51.505 25 51 C24.505 50.505 24.505 50.505 24 50 C23.91156207 47.55169574 23.88471248 45.13179401 23.90234375 42.68359375 C23.9037587 41.95253922 23.90517365 41.22148468 23.90663147 40.46827698 C23.91224592 38.12464368 23.92480078 35.78110461 23.9375 33.4375 C23.94251314 31.85221492 23.94707637 30.26692834 23.95117188 28.68164062 C23.96222003 24.7877239 23.97949428 20.89387795 24 17 C25.81242052 16.97312721 27.62495233 16.95366285 29.4375 16.9375 C30.44683594 16.92589844 31.45617187 16.91429688 32.49609375 16.90234375 C35 17 35 17 36 18 C36.33 16.35 36.66 14.7 37 13 C25.78 13 14.56 13 3 13 C3.33 14.65 3.66 16.3 4 18 C4.66 17.34 5.32 16.68 6 16 C9.63 16 13.26 16 17 16 C17 24.91 17 33.82 17 43 C14.03 42.01 11.06 41.02 8 40 C7.690625 40.94875 7.38125 41.8975 7.0625 42.875 C6 46 6 46 5 48 C3.35 47.67 1.7 47.34 0 47 C0 31.49 0 15.98 0 0 Z " fill="#993B81" transform="translate(161,1)"/>
<path d="M0 0 C0 0.99 0 1.98 0 3 C2.31 3 4.62 3 7 3 C7.33 1.68 7.66 0.36 8 -1 C10.31 -0.67 12.62 -0.34 15 0 C15 2.31 15 4.62 15 7 C17.96687001 8.64826111 20.65626525 9.44271087 24 10 C24.495 11.98 24.495 11.98 25 14 C23.02 14.99 23.02 14.99 21 16 C20.7497843 18.91634129 20.7497843 18.91634129 21 22 C21.99 22.66 22.98 23.32 24 24 C23.67 25.98 23.34 27.96 23 30 C20.69 30 18.38 30 16 30 C15.67 30.66 15.34 31.32 15 32 C14.34 32 13.68 32 13 32 C13.33 34.31 13.66 36.62 14 39 C11.525 39.495 11.525 39.495 9 40 C8.34 38.35 7.68 36.7 7 35 C4.05908413 35.18415432 4.05908413 35.18415432 1 36 C-0.43637698 37.95163118 -0.43637698 37.95163118 -1 40 C-2.98 39.67 -4.96 39.34 -7 39 C-6.95875 37.88625 -6.9175 36.7725 -6.875 35.625 C-6.58878141 31.95633975 -6.58878141 31.95633975 -9 30 C-10.485 30.0309375 -10.485 30.0309375 -12 30.0625 C-12.99 30.041875 -13.98 30.02125 -15 30 C-17 27 -17 27 -17 24 C-16.360625 23.79375 -15.72125 23.5875 -15.0625 23.375 C-12.65074923 22.10461791 -12.65074923 22.10461791 -12.25 18.875 C-12.1675 17.92625 -12.085 16.9775 -12 16 C-13.32 15.67 -14.64 15.34 -16 15 C-17.125 11.25 -17.125 11.25 -16 9 C-14.329375 9.061875 -14.329375 9.061875 -12.625 9.125 C-8.95633975 9.41121859 -8.95633975 9.41121859 -7 7 C-6.83322718 3.41656024 -6.83322718 3.41656024 -7 0 C-4.3333581 -1.33332095 -2.83319697 -0.67102033 0 0 Z " fill="#FEF5E8" transform="translate(131,15)"/>
<path d="M0 0 C12.9999889 -0.03103882 25.99997894 -0.05112952 39 -0.0625 C39.97168751 -0.06335602 40.94337502 -0.06421204 41.9445076 -0.06509399 C70.77927893 -0.08749715 99.60595444 0.06136218 128.4375 0.5 C129.61723389 0.51793673 129.61723389 0.51793673 130.82080078 0.53623581 C140.21405481 0.68000918 149.60711038 0.83398682 159 1 C159 1.33 159 1.66 159 2 C117.42 2.495 117.42 2.495 75 3 C76.32 3.66 77.64 4.32 79 5 C78.67 5.66 78.34 6.32 78 7 C77.01 6.505 77.01 6.505 76 6 C76 8.64 76 11.28 76 14 C74.8274869 13.04882866 73.66212985 12.08882991 72.5 11.125 C71.8503125 10.59132813 71.200625 10.05765625 70.53125 9.5078125 C70.0259375 9.01023437 69.520625 8.51265625 69 8 C69 7.34 69 6.68 69 6 C68.34 6 67.68 6 67 6 C67 9.96 67 13.92 67 18 C68.32 17.67 69.64 17.34 71 17 C71.495 19.475 71.495 19.475 72 22 C69.03 22 66.06 22 63 22 C63.495 21.071875 63.495 21.071875 64 20.125 C65.40387684 15.73788488 65.15967523 11.56848573 65 7 C62.78629949 8.78657757 62.78629949 8.78657757 62.8046875 11.1640625 C62.82789063 11.97617188 62.85109375 12.78828125 62.875 13.625 C62.89304688 14.44226563 62.91109375 15.25953125 62.9296875 16.1015625 C62.95289063 16.72804688 62.97609375 17.35453125 63 18 C61.0625 17.6875 61.0625 17.6875 59 17 C58.505 15.515 58.505 15.515 58 14 C57.34 14 56.68 14 56 14 C56 14.99 56 15.98 56 17 C56.66 17 57.32 17 58 17 C58 17.66 58 18.32 58 19 C51.47692308 19.36923077 51.47692308 19.36923077 49.0625 17.5 C48.5365625 16.7575 48.5365625 16.7575 48 16 C48 16.66 48 17.32 48 18 C47.01 18 46.02 18 45 18 C44.505 16.515 44.505 16.515 44 15 C41.98491642 14.26676204 41.98491642 14.26676204 40 14 C39.814375 14.9590625 39.814375 14.9590625 39.625 15.9375 C39.41875 16.618125 39.2125 17.29875 39 18 C34.41144456 20.29427772 31.04753204 19.87361131 26 19 C26 16.03 26 13.06 26 10 C23.69 10.66 21.38 11.32 19 12 C18.67 13.32 18.34 14.64 18 16 C19.32 16 20.64 16 22 16 C22 16.99 22 17.98 22 19 C19.36 19 16.72 19 14 19 C14 14.38 14 9.76 14 5 C15.65 5 17.3 5 19 5 C19 4.34 19 3.68 19 3 C20.98 2.67 22.96 2.34 25 2 C16.75 1.67 8.5 1.34 0 1 C0 0.67 0 0.34 0 0 Z " fill="#AB5923" transform="translate(0,65)"/>
<path d="M0 0 C14.52 0 29.04 0 44 0 C44 1.98 44 3.96 44 6 C45.32 6 46.64 6 48 6 C47.67 6.66 47.34 7.32 47 8 C46.01 7.67 45.02 7.34 44 7 C44 8.32 44 9.64 44 11 C44.99 11.33 45.98 11.66 47 12 C46.01 12 45.02 12 44 12 C44 15.63 44 19.26 44 23 C29.48 23 14.96 23 0 23 C0 15.41 0 7.82 0 0 Z " fill="#742F63" transform="translate(160,65)"/>
<path d="M0 0 C14.19 0 28.38 0 43 0 C42.67 5.61 42.34 11.22 42 17 C43.32 16.67 44.64 16.34 46 16 C46.33 12.7 46.66 9.4 47 6 C47.66 6 48.32 6 49 6 C49.62645012 14.14385151 49.62645012 14.14385151 47.125 17.5625 C45 19 45 19 43 19 C43 20.32 43 21.64 43 23 C28.81 23 14.62 23 0 23 C0 17.72 0 12.44 0 7 C1.32 6.67 2.64 6.34 4 6 C2.68 6 1.36 6 0 6 C0 4.02 0 2.04 0 0 Z " fill="#085B8E" transform="translate(204,65)"/>
<path d="M0 0 C14.52 0 29.04 0 44 0 C44 21.12 44 42.24 44 64 C29.48 64 14.96 64 0 64 C0 42.88 0 21.76 0 0 Z M1 1 C1 16.51 1 32.02 1 48 C2.65 48.33 4.3 48.66 6 49 C8.2013866 45.19572508 8.2013866 45.19572508 9 41 C11.97 41.99 14.94 42.98 18 44 C18 35.09 18 26.18 18 17 C14.37 17 10.74 17 7 17 C6.34 17.66 5.68 18.32 5 19 C4.67 17.35 4.34 15.7 4 14 C15.22 14 26.44 14 38 14 C37.67 15.65 37.34 17.3 37 19 C36.67 18.67 36.34 18.34 36 18 C34.14712498 17.92773498 32.29166122 17.9161878 30.4375 17.9375 C29.42558594 17.94652344 28.41367188 17.95554687 27.37109375 17.96484375 C26.58863281 17.97644531 25.80617187 17.98804687 25 18 C24.97534712 22.68139254 24.95716261 27.36274759 24.94506836 32.04418945 C24.94002843 33.63794614 24.9331965 35.23169819 24.92456055 36.82543945 C24.91248001 39.11150253 24.90676845 41.39750467 24.90234375 43.68359375 C24.89718246 44.40026718 24.89202118 45.11694061 24.88670349 45.85533142 C24.88650737 47.57063672 24.93807993 49.28581266 25 51 C25.495 51.495 25.495 51.495 26 52 C21.545 52.495 21.545 52.495 17 53 C16.82618333 55.15505237 16.82618333 55.15505237 18.375 57.25 C20.82225324 59.27050183 20.82225324 59.27050183 23.4921875 58.8125 C26.02707127 58.29546988 28.5106945 57.70308629 31 57 C31.66 58.98 32.32 60.96 33 63 C36.3 63 39.6 63 43 63 C43 42.54 43 22.08 43 1 C29.14 1 15.28 1 1 1 Z " fill="#985698" transform="translate(160,0)"/>
<path d="M0 0 C8.58 0 17.16 0 26 0 C25.67 0.66 25.34 1.32 25 2 C23.02 2 21.04 2 19 2 C19 2.66 19 3.32 19 4 C17.35 4 15.7 4 14 4 C14 8.62 14 13.24 14 18 C16.64 18 19.28 18 22 18 C22 17.01 22 16.02 22 15 C20.68 15 19.36 15 18 15 C18.875 10.125 18.875 10.125 20 9 C21.99958364 8.95919217 24.00045254 8.95745644 26 9 C26 11.97 26 14.94 26 18 C29.3 18 32.6 18 36 18 C36.33 17.34 36.66 16.68 37 16 C37.66 16.33 38.32 16.66 39 17 C39.33 15.68 39.66 14.36 40 13 C42.475 13.495 42.475 13.495 45 14 C45 14.99 45 15.98 45 17 C45.99 17 46.98 17 48 17 C48 16.34 48 15.68 48 15 C48.99 15.33 49.98 15.66 51 16 C51 16.66 51 17.32 51 18 C53.31 18 55.62 18 58 18 C58 17.34 58 16.68 58 16 C57.34 16 56.68 16 56 16 C56 15.01 56 14.02 56 13 C56.66 13 57.32 13 58 13 C58.66 13.99 59.32 14.98 60 16 C60.99 16.33 61.98 16.66 63 17 C62.88140625 16.38511719 62.7628125 15.77023438 62.640625 15.13671875 C62.51171875 14.32847656 62.3828125 13.52023438 62.25 12.6875 C62.11078125 11.88699219 61.9715625 11.08648437 61.828125 10.26171875 C62 8 62 8 63.984375 6.20703125 C64.64953125 5.80871094 65.3146875 5.41039063 66 5 C66.05429959 6.74965358 66.09292823 8.49979787 66.125 10.25 C66.14820312 11.22453125 66.17140625 12.1990625 66.1953125 13.203125 C65.99862781 16.0196498 65.44568916 17.60949036 64 20 C66.64 20.33 69.28 20.66 72 21 C71.67 19.35 71.34 17.7 71 16 C70.34 16 69.68 16 69 16 C69 14.02 69 12.04 69 10 C69.47050781 10.42152344 69.94101563 10.84304687 70.42578125 11.27734375 C71.35970703 12.09912109 71.35970703 12.09912109 72.3125 12.9375 C72.92738281 13.48277344 73.54226562 14.02804688 74.17578125 14.58984375 C76.05241958 16.20081559 76.05241958 16.20081559 79 17 C79 14.69 79 12.38 79 10 C83.07229836 13.41547604 83.03526416 14.21158499 84 20 C108.75 20.33 133.5 20.66 159 21 C159 21.33 159 21.66 159 22 C106.53 22 54.06 22 0 22 C0 14.74 0 7.48 0 0 Z " fill="#B25115" transform="translate(0,66)"/>
<path d="M0 0 C5.85426298 0.96146655 8.72554478 4.89298555 12.140625 9.3515625 C14.53880899 14.14793049 13.7883749 21.53670818 12.609375 26.66015625 C11.16877818 30.30079496 9.44435834 32.3461384 6.140625 34.3515625 C1.82608086 35.13365509 -2.74771597 35.30562531 -6.8046875 33.47265625 C-10.55657889 30.61631682 -12.87873459 26.90865617 -13.859375 22.3515625 C-14.49388139 14.76770043 -14.41008972 8.82980985 -9.796875 2.5390625 C-6.25680207 -0.09716202 -4.30332724 -0.27073913 0 0 Z " fill="#EA6A21" transform="translate(30.859375,15.6484375)"/>
<path d="M0 0 C3 1 3 1 4.51806641 3.484375 C5.04062012 4.56203125 5.56317383 5.6396875 6.1015625 6.75 C6.67390625 7.9153125 7.24625 9.080625 7.8359375 10.28125 C8.43270289 11.52063541 9.0290521 12.7602213 9.625 14 C10.80134064 16.41831402 11.98282271 18.83407065 13.1640625 21.25 C13.94450928 22.86648437 13.94450928 22.86648437 14.74072266 24.515625 C15.77831383 26.88198605 15.77831383 26.88198605 17 28 C21.29 18.76 25.58 9.52 30 0 C30.66 0 31.32 0 32 0 C34.20499733 9.30477595 35.74432847 18.59096828 36.99731445 28.06518555 C37.11421631 28.93570557 37.23111816 29.80622559 37.3515625 30.703125 C37.45291504 31.48333008 37.55426758 32.26353516 37.65869141 33.06738281 C37.91853567 35.07444294 37.91853567 35.07444294 39 37 C40.32 37.66 41.64 38.32 43 39 C39.04 39 35.08 39 31 39 C30.66068773 36.33397504 30.32842824 33.66736986 30 31 C29.90460938 30.25621094 29.80921875 29.51242188 29.7109375 28.74609375 C29.10772324 23.79111949 28.90924409 18.99157504 29 14 C28.34 14 27.68 14 27 14 C26.75507812 14.80695312 26.51015625 15.61390625 26.2578125 16.4453125 C24.73868763 20.73849149 22.84272902 24.77266742 20.875 28.875 C20.50246094 29.65875 20.12992188 30.4425 19.74609375 31.25 C18.83381003 33.16813499 17.91733016 35.08427329 17 37 C15.68 37 14.36 37 13 37 C9.7 30.4 6.4 23.8 3 17 C1.46298119 18.53701881 1.67701275 20.11807163 1.46484375 22.25390625 C1.33432617 23.53491211 1.33432617 23.53491211 1.20117188 24.84179688 C1.0706543 26.18854492 1.0706543 26.18854492 0.9375 27.5625 C0.84662109 28.46419922 0.75574219 29.36589844 0.66210938 30.29492188 C0.43746077 32.52958434 0.21694231 34.76457839 0 37 C0.99 37.66 1.98 38.32 3 39 C-0.96 39 -4.92 39 -9 39 C-8.01 38.34 -7.02 37.68 -6 37 C-5.31202506 34.20325277 -4.80587895 31.55020107 -4.39453125 28.7109375 C-4.20113411 27.48330185 -4.20113411 27.48330185 -4.00382996 26.23086548 C-3.59445784 23.61397355 -3.2032994 20.99472343 -2.8125 18.375 C-2.53830352 16.60137748 -2.26292751 14.82793687 -1.98632812 13.0546875 C-1.31050891 8.70511848 -0.65101223 4.35334814 0 0 Z " fill="#FDF5EA" transform="translate(66,14)"/>
<path d="M0 0 C8.91 0 17.82 0 27 0 C27 18.81 27 37.62 27 57 C26.67 57 26.34 57 26 57 C26 44.46 26 31.92 26 19 C25.34 19 24.68 19 24 19 C24 19.99 24 20.98 24 22 C21.03 22.495 21.03 22.495 18 23 C18 22.34 18 21.68 18 21 C14.75016865 22.08784968 14.75016865 22.08784968 12 24 C10.31391034 24.07205511 8.62499341 24.08386068 6.9375 24.0625 C6.01839844 24.05347656 5.09929687 24.04445313 4.15234375 24.03515625 C3.44207031 24.02355469 2.73179687 24.01195313 2 24 C2 25.65 2 27.3 2 29 C6.95 29 11.9 29 17 29 C17 29.33 17 29.66 17 30 C11.39 30 5.78 30 0 30 C0 25.38 0 20.76 0 16 C2.79192205 15.94619422 5.5828141 15.90642331 8.375 15.875 C9.1690625 15.85824219 9.963125 15.84148438 10.78125 15.82421875 C12.85492015 15.80664527 14.92883241 15.89664832 17 16 C17.66 16.66 18.32 17.32 19 18 C19.33 16.35 19.66 14.7 20 13 C9.44 13 -1.12 13 -12 13 C-12 12.67 -12 12.34 -12 12 C-8.7 12 -5.4 12 -2 12 C-2.061875 10.4221875 -2.061875 10.4221875 -2.125 8.8125 C-2 5 -2 5 0 0 Z " fill="#0C6DAE" transform="translate(220,1)"/>
<path d="M0 0 C3.85643898 2.44185001 6.74554732 5.11231684 8.375 9.4375 C9.35554036 16.24054106 9.23108793 22.7818969 5.64453125 28.7890625 C1.68005144 33.93678705 -3.16704375 36.97166133 -9.640625 37.84375 C-16.46118964 38.04144753 -21.34523263 37.629578 -26.8125 33.328125 C-31.38331777 28.56028922 -32.82735674 23.37558577 -33.1875 16.875 C-32.91423903 9.90684516 -30.00025197 5.64309112 -25 1 C-18.55259003 -3.24171708 -7.01629828 -3.15127408 0 0 Z M-23.53125 4.734375 C-26.79539077 9.81710849 -26.1581991 16.6611764 -25.625 22.4375 C-24.38191929 26.62614151 -22.32188935 29.59278564 -19.5625 32.9375 C-14.99750405 35.26856176 -10.64263297 35.17694065 -5.625 34.4375 C-2.09776841 32.56590773 -1.00119239 31.37731158 0.47265625 27.6953125 C2.29313731 21.12266661 2.66064546 14.05470682 -0.375 7.875 C-1.48875 6.6684375 -1.48875 6.6684375 -2.625 5.4375 C-3.305625 4.674375 -3.98625 3.91125 -4.6875 3.125 C-8.15569385 0.10431504 -11.91436165 -0.01650194 -16.33203125 0.01953125 C-19.69704416 0.6329152 -21.28262357 2.26088593 -23.53125 4.734375 Z " fill="#FDF5E8" transform="translate(42.625,15.5625)"/>
<path d="M0 0 C0 7.59 0 15.18 0 23 C-15.18 23 -30.36 23 -46 23 C-46 21.68 -46 20.36 -46 19 C-45.360625 18.71125 -44.72125 18.4225 -44.0625 18.125 C-41.84793921 17.17176549 -41.84793921 17.17176549 -41 15 C-40.34 15 -39.68 15 -39 15 C-38.67 14.01 -38.34 13.02 -38 12 C-37.01 12.33 -36.02 12.66 -35 13 C-35 14.98 -35 16.96 -35 19 C-33.68 19 -32.36 19 -31 19 C-31 19.99 -31 20.98 -31 22 C-27.04 22 -23.08 22 -19 22 C-19.33 21.01 -19.66 20.02 -20 19 C-19.01 18.34 -18.02 17.68 -17 17 C-16.74969023 14.41619823 -16.74969023 14.41619823 -17 12 C-15.68 11.67 -14.36 11.34 -13 11 C-14.32 11 -15.64 11 -17 11 C-17 9.68 -17 8.36 -17 7 C-15.68 6.67 -14.36 6.34 -13 6 C-14.65 6 -16.3 6 -18 6 C-18 4.35 -18 2.7 -18 1 C-15.1875205 0.83298107 -12.37501801 0.66636797 -9.5625 0.5 C-8.76005859 0.45230469 -7.95761719 0.40460938 -7.13085938 0.35546875 C-1.11328125 0 -1.11328125 0 0 0 Z " fill="#034376" transform="translate(293,65)"/>
<path d="M0 0 C3.8076546 2.01159111 7.04834016 4.09668033 9 8 C9.55335968 12.9011857 9.5327637 15.00795724 7.1875 19.375 C4.82301957 22.21237652 3.19921975 23.78726557 -0.48828125 24.44140625 C-7.72839911 24.75184007 -7.72839911 24.75184007 -11.0546875 22.78515625 C-14.31526714 19.4699736 -15.39659954 16.4983791 -15.625 11.875 C-15.35018738 7.4645926 -14.33491541 5.04906552 -11 2 C-7.29211504 -0.47192331 -4.30054275 -0.66788732 0 0 Z " fill="#E86C26" transform="translate(138,22)"/>
<path d="M0 0 C10.23 0 20.46 0 31 0 C31 2.31 31 4.62 31 7 C30.5877417 6.5155542 30.1754834 6.0311084 29.75073242 5.53198242 C27.66668126 3.70832867 26.71459137 3.59077411 23.98828125 3.48828125 C23.23095703 3.45283203 22.47363281 3.41738281 21.69335938 3.38085938 C20.90767578 3.35830078 20.12199219 3.33574219 19.3125 3.3125 C18.51521484 3.27833984 17.71792969 3.24417969 16.89648438 3.20898438 C14.93148096 3.12661896 12.96576304 3.06162933 11 3 C11 7.62 11 12.24 11 17 C13.7920301 16.8595017 16.58349796 16.71284617 19.375 16.5625 C20.1690625 16.52318359 20.963125 16.48386719 21.78125 16.44335938 C26.02601221 16.31106596 26.02601221 16.31106596 30 15 C30 17.97 30 20.94 30 24 C29.34 23.01 28.68 22.02 28 21 C25.06402461 20.61615491 22.31972627 20.396157 19.375 20.3125 C18.57320312 20.27833984 17.77140625 20.24417969 16.9453125 20.20898438 C14.96403682 20.12643122 12.98203963 20.06154084 11 20 C11.33 24.95 11.66 29.9 12 35 C18.27 35 24.54 35 31 35 C31 33.68 31 32.36 31 31 C31.66 31 32.32 31 33 31 C32.67 33.64 32.34 36.28 32 39 C21.44 39 10.88 39 0 39 C1.32 38.01 2.64 37.02 4 36 C4.42646001 33.29571712 4.6048041 30.9787448 4.609375 28.26953125 C4.62591125 27.51911057 4.64244751 26.76868988 4.65948486 25.99552917 C4.70803052 23.60110344 4.72934885 21.20731298 4.75 18.8125 C4.77815443 17.18811897 4.80808112 15.56376761 4.83984375 13.93945312 C4.91379039 9.95968773 4.96332417 5.98027633 5 2 C3.35 1.67 1.7 1.34 0 1 C0 0.67 0 0.34 0 0 Z " fill="#C7EEF9" transform="translate(209,14)"/>
<path d="M0 0 C1.18335938 -0.00193359 1.18335938 -0.00193359 2.390625 -0.00390625 C3.62039063 0.00189453 3.62039063 0.00189453 4.875 0.0078125 C5.69484375 0.00394531 6.5146875 0.00007812 7.359375 -0.00390625 C8.14828125 -0.00261719 8.9371875 -0.00132813 9.75 0 C10.46929687 0.00112793 11.18859375 0.00225586 11.9296875 0.00341797 C13.875 0.1328125 13.875 0.1328125 16.875 1.1328125 C16.875 4.4328125 16.875 7.7328125 16.875 11.1328125 C16.215 10.1428125 15.555 9.1528125 14.875 8.1328125 C11.10254192 4.12457579 9.12993322 2.95334291 3.625 2.7578125 C-0.2907156 2.77836744 -2.69971604 2.97830873 -5.75 5.5078125 C-9.33091462 9.46566551 -9.3080759 11.59580874 -9.375 16.8828125 C-9.40078125 18.09453125 -9.4265625 19.30625 -9.453125 20.5546875 C-8.9777821 25.73818869 -7.41680302 28.96703904 -3.5625 32.4453125 C0.01152534 34.91963774 1.9836312 35.31382654 6.3125 35.3828125 C7.28058594 35.40859375 8.24867188 35.434375 9.24609375 35.4609375 C11.88871966 35.35044738 11.88871966 35.35044738 13.66015625 33.8046875 C15.07589435 32.03320683 15.07589435 32.03320683 15.875 29.1328125 C16.535 29.1328125 17.195 29.1328125 17.875 29.1328125 C17.125 36.8828125 17.125 36.8828125 14.875 39.1328125 C6.39720758 39.95716284 -3.1187569 40.79010147 -10.42578125 35.765625 C-15.19005965 31.18753679 -18.19428341 25.58876907 -18.5 18.9453125 C-18.42111107 12.88072575 -15.75833744 8.78589997 -11.5625 4.55859375 C-7.82549779 1.29805933 -4.89555799 0.00767673 0 0 Z " fill="#E6F4F9" transform="translate(268.125,13.8671875)"/>
<path d="M0 0 C11.22 0 22.44 0 34 0 C34 2.64 34 5.28 34 8 C33.34 7.01 32.68 6.02 32 5 C26.555 4.505 26.555 4.505 21 4 C21.33 14.89 21.66 25.78 22 37 C23.32 37.66 24.64 38.32 26 39 C20.72 39 15.44 39 10 39 C10.99 38.34 11.98 37.68 13 37 C13.33792536 34.38322508 13.48886089 31.99063608 13.51171875 29.3671875 C13.52966995 28.61535187 13.54762115 27.86351624 13.56611633 27.08889771 C13.62035781 24.68432244 13.65415792 22.27994715 13.6875 19.875 C13.72066102 18.24606583 13.75514955 16.6171581 13.79101562 14.98828125 C13.87609162 10.99233154 13.94283578 6.99644254 14 3 C12.22825181 3.08723378 10.45752623 3.19541655 8.6875 3.3125 C7.70136719 3.37050781 6.71523437 3.42851562 5.69921875 3.48828125 C2.75615543 4.04622813 1.81817001 4.68540132 0 7 C0 4.69 0 2.38 0 0 Z " fill="#F5E5F2" transform="translate(164,14)"/>
<path d="M0 0 C7.26 0 14.52 0 22 0 C22 1.98 22 3.96 22 6 C23.32 6 24.64 6 26 6 C25.67 6.66 25.34 7.32 25 8 C24.01 7.67 23.02 7.34 22 7 C22 8.32 22 9.64 22 11 C22.99 11.33 23.98 11.66 25 12 C24.01 12 23.02 12 22 12 C22 15.63 22 19.26 22 23 C13.75 23 5.5 23 -3 23 C-3 22.67 -3 22.34 -3 22 C3.435 21.505 3.435 21.505 10 21 C10.33 19.68 10.66 18.36 11 17 C10.360625 16.731875 9.72125 16.46375 9.0625 16.1875 C7 15 7 15 6 12 C6.31478446 10.66216607 6.64587656 9.32796291 7 8 C5.81575674 6.58422523 5.81575674 6.58422523 2.4375 6.9375 C0.7359375 6.9684375 0.7359375 6.9684375 -1 7 C-0.67 4.69 -0.34 2.38 0 0 Z " fill="#773368" transform="translate(182,65)"/>
<path d="M0 0 C0.66 0 1.32 0 2 0 C2.33 1.65 2.66 3.3 3 5 C3.66 5 4.32 5 5 5 C5 5.99 5 6.98 5 8 C6.65 8 8.3 8 10 8 C9.67 5.69 9.34 3.38 9 1 C14.625 0.75 14.625 0.75 18 3 C18 5.33333333 18 7.66666667 18 10 C19.35885116 12.40083438 19.35885116 12.40083438 21 14 C19.0625 13.6875 19.0625 13.6875 17 13 C16.505 11.515 16.505 11.515 16 10 C15.34 10 14.68 10 14 10 C14 10.99 14 11.98 14 13 C14.66 13 15.32 13 16 13 C16 13.66 16 14.32 16 15 C9.47692308 15.36923077 9.47692308 15.36923077 7.0625 13.5 C6.711875 13.005 6.36125 12.51 6 12 C6 12.66 6 13.32 6 14 C5.01 14 4.02 14 3 14 C2.67 13.01 2.34 12.02 2 11 C-0.01508358 10.26676204 -0.01508358 10.26676204 -2 10 C-2.12375 10.639375 -2.2475 11.27875 -2.375 11.9375 C-2.58125 12.618125 -2.7875 13.29875 -3 14 C-7.58855544 16.29427772 -10.95246796 15.87361131 -16 15 C-16.33 10.38 -16.66 5.76 -17 1 C-15.576875 0.938125 -14.15375 0.87625 -12.6875 0.8125 C-11.48673828 0.76029297 -11.48673828 0.76029297 -10.26171875 0.70703125 C-8 1 -8 1 -6.20703125 2.32421875 C-5 4 -5 4 -5 7 C-4.01 6.67 -3.02 6.34 -2 6 C-0.77479736 2.99152582 -0.77479736 2.99152582 0 0 Z " fill="#AE5E28" transform="translate(42,69)"/>
<path d="M0 0 C2.31 0 4.62 0 7 0 C8.91219585 1.91219585 8.24435298 5.33645504 8.31640625 7.87890625 C8.33718735 8.5655687 8.35796844 9.25223114 8.37937927 9.95970154 C8.44494143 12.16052935 8.50379015 14.36147975 8.5625 16.5625 C8.60567892 18.05144514 8.649293 19.54037773 8.69335938 21.02929688 C8.8006293 24.68606553 8.90187772 28.34297318 9 32 C5.37 32 1.74 32 -2 32 C-1.34 31.67 -0.68 31.34 0 31 C0 20.77 0 10.54 0 0 Z " fill="#0B68AA" transform="translate(271,18)"/>
<path d="M0 0 C14.52 0 29.04 0 44 0 C44 0.33 44 0.66 44 1 C29.81 1 15.62 1 1 1 C1 16.51 1 32.02 1 48 C2.65 48.33 4.3 48.66 6 49 C6.309375 48.05125 6.61875 47.1025 6.9375 46.125 C8 43 8 43 9 41 C11.97 41.99 14.94 42.98 18 44 C18.14285714 51.42857143 18.14285714 51.42857143 17 55 C11.49191603 54.40984815 6.35121931 53.43336231 1 52 C1 55.63 1 59.26 1 63 C0.67 63 0.34 63 0 63 C0 42.21 0 21.42 0 0 Z " fill="#B8568A" transform="translate(160,0)"/>
<path d="M0 0 C0.02578125 1.134375 0.0515625 2.26875 0.078125 3.4375 C0.26712653 14.86578533 0.26712653 14.86578533 5 25 C8.86489534 28.27675909 11.97332059 29.52126863 17 30 C17 30.33 17 30.66 17 31 C4.30475664 31.85907662 4.30475664 31.85907662 -0.0625 29.0625 C-4.55981639 25.06861455 -6.63299214 20.04449706 -7.34375 14.1484375 C-7.50856337 9.05295739 -7.48923303 5.02603812 -4 1 C-2 0 -2 0 0 0 Z " fill="#FEF4E8" transform="translate(17,21)"/>
<path d="M0 0 C0.38909985 1.45463481 0.76088029 2.91391207 1.125 4.375 C1.43824219 5.59316406 1.43824219 5.59316406 1.7578125 6.8359375 C1.83773437 7.55007812 1.91765625 8.26421875 2 9 C1.34 9.66 0.68 10.32 0 11 C-0.66 10.67 -1.32 10.34 -2 10 C-2 9.01 -2 8.02 -2 7 C-2.99 6.67 -3.98 6.34 -5 6 C-5 5.34 -5 4.68 -5 4 C-7.97 4 -10.94 4 -14 4 C-13.67 5.65 -13.34 7.3 -13 9 C-15.31 9.66 -17.62 10.32 -20 11 C-20.33 12.32 -20.66 13.64 -21 15 C-19.68 15 -18.36 15 -17 15 C-17 15.99 -17 16.98 -17 18 C-19.64 18 -22.28 18 -25 18 C-25 13.38 -25 8.76 -25 4 C-23.35 4 -21.7 4 -20 4 C-20 3.34 -20 2.68 -20 2 C-13.38190423 -0.46254726 -6.99560484 -0.18935472 0 0 Z " fill="#B55D1C" transform="translate(39,66)"/>
<path d="M0 0 C1.65 0 3.3 0 5 0 C6.0625 1.8125 6.0625 1.8125 7 4 C6.67 4.99 6.34 5.98 6 7 C7.79819816 10.4260261 7.79819816 10.4260261 12 11 C12.33 7.37 12.66 3.74 13 0 C15.31 0 17.62 0 20 0 C19.67 0.66 19.34 1.32 19 2 C18.01 1.67 17.02 1.34 16 1 C16 2.32 16 3.64 16 5 C17.32 5 18.64 5 20 5 C19.67 5.66 19.34 6.32 19 7 C18.01 6.67 17.02 6.34 16 6 C16 7.65 16 9.3 16 11 C17.32 11.33 18.64 11.66 20 12 C18.02 12.33 16.04 12.66 14 13 C14 13.99 14 14.98 14 16 C10.04 16 6.08 16 2 16 C2 15.01 2 14.02 2 13 C0.68 13 -0.64 13 -2 13 C-2 12.34 -2 11.68 -2 11 C-1.34 11 -0.68 11 0 11 C0 7.37 0 3.74 0 0 Z " fill="#154E79" transform="translate(260,71)"/>
<path d="M0 0 C4.81674558 4.69323928 6.15729524 6.47413037 6.25 13.1875 C6.20164357 18.65782139 5.84595613 22.32450064 3 27 C-0.88955763 30.61540379 -4.17405372 30.55590639 -9.296875 30.42578125 C-13.54100718 29.7572691 -15.17992452 28.19113804 -18 25 C-18.33 24.01 -18.66 23.02 -19 22 C-16.76980273 22.28367868 -14.54086546 22.57727388 -12.3125 22.875 C-11.07113281 23.03742187 -9.82976563 23.19984375 -8.55078125 23.3671875 C-5.42204705 23.92478369 -2.87851898 24.69008123 0 26 C2.00218682 17.91974605 4.50770596 7.54861872 0 0 Z " fill="#F07A26" transform="translate(38,20)"/>
<path d="M0 0 C3.63 0 7.26 0 11 0 C10.67 5.28 10.34 10.56 10 16 C11.32 15.67 12.64 15.34 14 15 C14.33 11.7 14.66 8.4 15 5 C15.66 5 16.32 5 17 5 C17.05422947 6.4370809 17.09289723 7.87475462 17.125 9.3125 C17.14820313 10.11300781 17.17140625 10.91351563 17.1953125 11.73828125 C17 14 17 14 15 17 C12.0625 17.4375 12.0625 17.4375 9 17 C5.84063943 14.16746984 5.46625359 11.10303158 5 7 C3.02 7 1.04 7 -1 7 C-1 10.3 -1 13.6 -1 17 C-1.99 17 -2.98 17 -4 17 C-4 13.37 -4 9.74 -4 6 C-5.32 6 -6.64 6 -8 6 C-8 5.34 -8 4.68 -8 4 C-3.545 3.505 -3.545 3.505 1 3 C0.67 2.01 0.34 1.02 0 0 Z " fill="#61A0C0" transform="translate(236,66)"/>
<path d="M0 0 C2.75059381 -0.08107646 5.49879021 -0.14052813 8.25 -0.1875 C9.02730469 -0.21263672 9.80460938 -0.23777344 10.60546875 -0.26367188 C16.43447523 -0.33840273 16.43447523 -0.33840273 19.421875 1.44921875 C19.94265625 1.96097656 20.4634375 2.47273438 21 3 C21.66 3.33 22.32 3.66 23 4 C22.67 4.99 22.34 5.98 22 7 C20.68 7 19.36 7 18 7 C18 6.34 18 5.68 18 5 C14.75016865 6.08784968 14.75016865 6.08784968 12 8 C10.31391034 8.07205511 8.62499341 8.08386068 6.9375 8.0625 C6.01839844 8.05347656 5.09929687 8.04445313 4.15234375 8.03515625 C3.44207031 8.02355469 2.73179687 8.01195312 2 8 C2 9.65 2 11.3 2 13 C6.95 13 11.9 13 17 13 C17 13.33 17 13.66 17 14 C11.39 14 5.78 14 0 14 C0 9.38 0 4.76 0 0 Z " fill="#1268A7" transform="translate(220,17)"/>
<path d="M0 0 C5.60878083 -0.56087808 9.3697846 1.04312733 14 4 C17 6.625 17 6.625 19 9 C19 9.66 19 10.32 19 11 C12.73 11 6.46 11 0 11 C0 7.37 0 3.74 0 0 Z " fill="#9A3A7E" transform="translate(161,52)"/>
<path d="M0 0 C1.98 0 3.96 0 6 0 C7.0625 1.8125 7.0625 1.8125 8 4 C7.67 4.99 7.34 5.98 7 7 C8.25541557 9.51083114 9.50063488 9.87125446 12 11 C11.34 12.65 10.68 14.3 10 16 C5.71 16 1.42 16 -3 16 C-2.34 14.35 -1.68 12.7 -1 11 C-0.7240522 9.07096868 -0.51550097 7.1310968 -0.375 5.1875 C-0.26285156 3.72376953 -0.26285156 3.72376953 -0.1484375 2.23046875 C-0.09945312 1.49441406 -0.05046875 0.75835937 0 0 Z " fill="#90527C" transform="translate(182,71)"/>
<path d="M0 0 C1.32 0 2.64 0 4 0 C4.33 11.88 4.66 23.76 5 36 C3.35 36 1.7 36 0 36 C0 24.12 0 12.24 0 0 Z " fill="#FCFEFD" transform="translate(215,15)"/>
<path d="M0 0 C6.93 0 13.86 0 21 0 C21 1.65 21 3.3 21 5 C18.03 4.67 15.06 4.34 12 4 C12.33 6.31 12.66 8.62 13 11 C12.01 11.33 11.02 11.66 10 12 C9.34 11.67 8.68 11.34 8 11 C8 10.01 8 9.02 8 8 C7.34 8 6.68 8 6 8 C5.67 6.35 5.34 4.7 5 3 C3.68 4.32 2.36 5.64 1 7 C0.67 6.67 0.34 6.34 0 6 C0 4.02 0 2.04 0 0 Z " fill="#B15117" transform="translate(39,66)"/>
<path d="M0 0 C2 1.0625 2 1.0625 3 3 C2.66666667 9.33333333 2.66666667 9.33333333 0 12 C-6.05240175 12.55021834 -6.05240175 12.55021834 -8.9375 10.875 C-10.50422245 8.11019567 -10.38976435 6.11811483 -10 3 C-7.72054654 -1.02256493 -4.21158603 -0.45124136 0 0 Z " fill="#763666" transform="translate(174,71)"/>
<path d="M0 0 C24.09 0 48.18 0 73 0 C73 2.64 73 5.28 73 8 C71.68 7.67 70.36 7.34 69 7 C69 8.32 69 9.64 69 11 C69.99 11.33 70.98 11.66 72 12 C71.01 12 70.02 12 69 12 C69 13.98 69 15.96 69 18 C68.01 18 67.02 18 66 18 C65.67 13.71 65.34 9.42 65 5 C67.31 5 69.62 5 72 5 C72 3.68 72 2.36 72 1 C48.24 1 24.48 1 0 1 C0 0.67 0 0.34 0 0 Z " fill="#A35D30" transform="translate(87,65)"/>
<path d="M0 0 C3.10115333 1.72286296 6.01838949 3.36712745 8.8125 5.5625 C8.8125 6.5525 8.8125 7.5425 8.8125 8.5625 C1.5525 8.5625 -5.7075 8.5625 -13.1875 8.5625 C-12.1875 4.5625 -12.1875 4.5625 -10.33203125 3.0078125 C-4.04000035 -0.55450985 -4.04000035 -0.55450985 0 0 Z " fill="#E86A1F" transform="translate(51.1875,54.4375)"/>
<path d="M0 0 C0.33 0 0.66 0 1 0 C1 1.98 1 3.96 1 6 C1.99 6.33 2.98 6.66 4 7 C3.86722656 7.66644531 3.73445313 8.33289063 3.59765625 9.01953125 C2.32379789 15.66777016 1.49610861 22.25031187 1 29 C1.99 29.66 2.98 30.32 4 31 C0.04 31 -3.92 31 -8 31 C-7.01 30.34 -6.02 29.68 -5 29 C-4.11545769 26.01030585 -4.11545769 26.01030585 -3.61328125 22.4609375 C-3.2894043 20.50800781 -3.2894043 20.50800781 -2.95898438 18.515625 C-2.74321075 17.13546023 -2.52771959 15.75525127 -2.3125 14.375 C-2.08647027 12.9867859 -1.85927075 11.59876172 -1.63085938 10.2109375 C-1.07568024 6.80898877 -0.53260996 3.40554282 0 0 Z " fill="#FDEBD6" transform="translate(65,22)"/>
<path d="M0 0 C2.015625 1.703125 2.015625 1.703125 4 4 C4.171875 6.359375 4.171875 6.359375 3.75 8.75 C3.62109375 9.54921875 3.4921875 10.3484375 3.359375 11.171875 C3.24078125 11.77515625 3.1221875 12.3784375 3 13 C4.84725052 13.69159401 4.84725052 13.69159401 7 14 C7.99 13.34 8.98 12.68 10 12 C10.36170213 17.42553191 10.36170213 17.42553191 8.9375 19.6875 C5.15020101 22.25308964 1.7005945 24.18091431 -2.9375 23.6875 C-3.618125 23.460625 -4.29875 23.23375 -5 23 C-4.360625 22.113125 -3.72125 21.22625 -3.0625 20.3125 C-0.0178193 15.42255827 0.12497425 11.37265715 0.0625 5.6875 C0.05347656 4.61886719 0.04445313 3.55023437 0.03515625 2.44921875 C0.02355469 1.64097656 0.01195312 0.83273438 0 0 Z " fill="#EB6C1E" transform="translate(51,27)"/>
<path d="M0 0 C0.90105469 0.00902344 1.80210937 0.01804688 2.73046875 0.02734375 C3.41753906 0.03894531 4.10460937 0.05054688 4.8125 0.0625 C5.080625 0.84625 5.34875 1.63 5.625 2.4375 C6.66064432 5.34364923 6.66064432 5.34364923 9.8125 7.0625 C12.14449388 7.14155064 14.48082622 7.15048769 16.8125 7.0625 C16.8125 7.7225 16.8125 8.3825 16.8125 9.0625 C9.8825 9.0625 2.9525 9.0625 -4.1875 9.0625 C-4.1875 6.7525 -4.1875 4.4425 -4.1875 2.0625 C-5.5075 1.7325 -6.8275 1.4025 -8.1875 1.0625 C-5.17259443 0.05753148 -3.14568308 -0.04085303 0 0 Z " fill="#1067A8" transform="translate(275.1875,52.9375)"/>
<path d="M0 0 C2.64 0 5.28 0 8 0 C10.32590854 3.63423209 10.16265833 6.77088331 10 11 C6.37 11 2.74 11 -1 11 C-0.67 7.37 -0.34 3.74 0 0 Z " fill="#0476BC" transform="translate(224,2)"/>
<path d="M0 0 C2.29648357 2.89585905 4.04347557 5.8172031 5.6875 9.125 C6.34298828 10.42824219 6.34298828 10.42824219 7.01171875 11.7578125 C8 14 8 14 8 16 C7.34 16 6.68 16 6 16 C6 15.34 6 14.68 6 14 C3.69 14.33 1.38 14.66 -1 15 C-1 17.31 -1 19.62 -1 22 C-0.01 22 0.98 22 2 22 C2 22.99 2 23.98 2 25 C-2.29 25 -6.58 25 -11 25 C-11 24.67 -11 24.34 -11 24 C-8.03 23.67 -5.06 23.34 -2 23 C-2.33 21.68 -2.66 20.36 -3 19 C-2.78110146 16.28060658 -2.49883786 13.6344731 -2.125 10.9375 C-2.03347656 10.21755859 -1.94195312 9.49761719 -1.84765625 8.75585938 C-1.44605829 5.70993685 -0.97383485 2.92150456 0 0 Z " fill="#DC7436" transform="translate(68,29)"/>
<path d="M0 0 C0.99 0.33 1.98 0.66 3 1 C3 1.99 3 2.98 3 4 C5.31 4 7.62 4 10 4 C10.33 2.68 10.66 1.36 11 0 C12.65 0.33 14.3 0.66 16 1 C16 3.64 16 6.28 16 9 C15.01 9 14.02 9 13 9 C13 8.34 13 7.68 13 7 C8.38 7.33 3.76 7.66 -1 8 C-1.33 6.35 -1.66 4.7 -2 3 C-1.34 2.01 -0.68 1.02 0 0 Z " fill="#FDF6EC" transform="translate(128,14)"/>
<path d="M0 0 C4.81674558 4.69323928 6.15729524 6.47413037 6.25 13.1875 C6.20179607 18.63454431 5.884994 22.3634025 3 27 C0.8125 28.4375 0.8125 28.4375 -1 29 C-1 28.34 -1 27.68 -1 27 C-0.34 27 0.32 27 1 27 C0.979375 25.741875 0.95875 24.48375 0.9375 23.1875 C0.89113917 20.35948913 1.08307039 18.75078884 2 16 C2.11953769 14.02345815 2.17526196 12.04261544 2.1875 10.0625 C2.20167969 9.02222656 2.21585938 7.98195313 2.23046875 6.91015625 C2.00392282 4.04953387 1.47733619 2.42329849 0 0 Z " fill="#E47830" transform="translate(38,20)"/>
<path d="M0 0 C2.64 0 5.28 0 8 0 C8 2.64 8 5.28 8 8 C6.68 8 5.36 8 4 8 C4 8.99 4 9.98 4 11 C5.32 11 6.64 11 8 11 C8 11.66 8 12.32 8 13 C5.69 13 3.38 13 1 13 C0.67 8.71 0.34 4.42 0 0 Z " fill="#B46D40" transform="translate(102,70)"/>
<path d="M0 0 C1.98 0 3.96 0 6 0 C6 11.22 6 22.44 6 34 C5.01 34 4.02 34 3 34 C3.01571045 33.04109863 3.0314209 32.08219727 3.04760742 31.09423828 C3.1018392 27.54224014 3.13632497 23.99027869 3.16479492 20.43798828 C3.17989711 18.89951426 3.20038046 17.36108339 3.22631836 15.82275391 C3.26264074 13.61349859 3.27971119 11.40481152 3.29296875 9.1953125 C3.30845261 8.50567413 3.32393646 7.81603577 3.33988953 7.10549927 C3.37537883 4.95571414 3.37537883 4.95571414 3 2 C2.01 1.34 1.02 0.68 0 0 Z " fill="#358CBE" transform="translate(208,16)"/>
<path d="M0 0 C0.33 1.32 0.66 2.64 1 4 C1.99 4 2.98 4 4 4 C4 3.01 4 2.02 4 1 C4.66 1 5.32 1 6 1 C4.60306939 5.88925715 2.06012438 8.05441957 -2 11 C-6.04133917 13.02066959 -9.32201942 13.21571678 -13.8125 13.125 C-14.97394531 13.10695313 -16.13539062 13.08890625 -17.33203125 13.0703125 C-18.21246094 13.04710937 -19.09289062 13.02390625 -20 13 C-20 12.67 -20 12.34 -20 12 C-18.35 11.67 -16.7 11.34 -15 11 C-15 10.67 -15 10.34 -15 10 C-14.39671875 9.96261719 -13.7934375 9.92523438 -13.171875 9.88671875 C-6.90710345 9.52864689 -6.90710345 9.52864689 -2 6 C-0.71991738 2.91222828 -0.71991738 2.91222828 0 0 Z " fill="#FDECD4" transform="translate(43,40)"/>
<path d="M0 0 C1.65 0 3.3 0 5 0 C4.67 3.63 4.34 7.26 4 11 C5.32 11 6.64 11 8 11 C8 11.99 8 12.98 8 14 C5.36 14 2.72 14 0 14 C0 9.38 0 4.76 0 0 Z " fill="#CE996F" transform="translate(14,70)"/>
<path d="M0 0 C1.98 0 3.96 0 6 0 C6.144375 0.7425 6.28875 1.485 6.4375 2.25 C7.23819171 6.16449282 7.7494032 8.6241048 10 12 C6.20411134 11.45773019 4.52788007 9.79872437 2 7 C2 8.65 2 10.3 2 12 C1.34 12 0.68 12 0 12 C0 8.04 0 4.08 0 0 Z " fill="#FCDCB8" transform="translate(53,71)"/>
<path d="M0 0 C0.66 0 1.32 0 2 0 C3.5078125 1.53125 3.5078125 1.53125 5.125 3.5 C5.66382812 4.1496875 6.20265625 4.799375 6.7578125 5.46875 C7.16773437 5.9740625 7.57765625 6.479375 8 7 C8.33 4.69 8.66 2.38 9 0 C9.66 0 10.32 0 11 0 C11 3.96 11 7.92 11 12 C7.43688534 10.21844267 5.64354525 8.83236991 3 6 C2.67 7.98 2.34 9.96 2 12 C1.34 12 0.68 12 0 12 C0 8.04 0 4.08 0 0 Z " fill="#EECAA9" transform="translate(67,71)"/>
<path d="M0 0 C0.99 0.495 0.99 0.495 2 1 C2 3.31 2 5.62 2 8 C2.66 8 3.32 8 4 8 C3.34 12.62 2.68 17.24 2 22 C7.28 22 12.56 22 18 22 C18 22.33 18 22.66 18 23 C12.06 23 6.12 23 0 23 C0 15.41 0 7.82 0 0 Z " fill="#7B2D51" transform="translate(160,65)"/>
<path d="M0 0 C10.23 0 20.46 0 31 0 C31 0.33 31 0.66 31 1 C29.85660156 1.06058594 28.71320313 1.12117187 27.53515625 1.18359375 C26.04425695 1.26798428 24.55337225 1.35263302 23.0625 1.4375 C21.93038086 1.49647461 21.93038086 1.49647461 20.77539062 1.55664062 C17.08055813 1.44038024 17.08055813 1.44038024 14 3 C11.22334163 3.24420122 8.44783001 3.38388187 5.6640625 3.5234375 C2.72837512 4.04858979 1.81098382 4.69623147 0 7 C0 4.69 0 2.38 0 0 Z " fill="#E8CFE3" transform="translate(164,14)"/>
<path d="M0 0 C10.23 0 20.46 0 31 0 C31 2.31 31 4.62 31 7 C30.5877417 6.5155542 30.1754834 6.0311084 29.75073242 5.53198242 C27.66668126 3.70832867 26.71459137 3.59077411 23.98828125 3.48828125 C23.23095703 3.45283203 22.47363281 3.41738281 21.69335938 3.38085938 C20.90767578 3.35830078 20.12199219 3.33574219 19.3125 3.3125 C18.51521484 3.27833984 17.71792969 3.24417969 16.89648438 3.20898438 C14.93148096 3.12661896 12.96576304 3.06162933 11 3 C11 2.67 11 2.34 11 2 C8.02148438 2.09765625 8.02148438 2.09765625 5.04296875 2.1953125 C3 2 3 2 0 0 Z " fill="#BBE5F8" transform="translate(209,14)"/>
<path d="M0 0 C2 1.0625 2 1.0625 3 3 C2.66666667 9.33333333 2.66666667 9.33333333 0 12 C-6.05240175 12.55021834 -6.05240175 12.55021834 -8.9375 10.875 C-10.50422245 8.11019567 -10.38976435 6.11811483 -10 3 C-7.72054654 -1.02256493 -4.21158603 -0.45124136 0 0 Z M-6 1 C-6.66 1.66 -7.32 2.32 -8 3 C-7.90304884 7.34194936 -7.90304884 7.34194936 -6 11 C-3.5 11.16666667 -3.5 11.16666667 -1 11 C0.20561184 10.01732141 0.20561184 10.01732141 0.09765625 8.15234375 C0.08605469 7.42144531 0.07445312 6.69054687 0.0625 5.9375 C0.041875 4.638125 0.02125 3.33875 0 2 C-2.90073181 1.32198966 -2.90073181 1.32198966 -6 1 Z " fill="#E4C4DE" transform="translate(174,71)"/>
<path d="M0 0 C0.33 0 0.66 0 1 0 C1 1.65 1 3.3 1 5 C2.98 5 4.96 5 7 5 C6.67 3.35 6.34 1.7 6 0 C6.99 0.33 7.98 0.66 9 1 C8.67 2.98 8.34 4.96 8 7 C6.3603125 6.9071875 6.3603125 6.9071875 4.6875 6.8125 C1.07873917 6.64402086 1.07873917 6.64402086 -0.9375 8.5 C-1.288125 8.995 -1.63875 9.49 -2 10 C-2.66 9.67 -3.32 9.34 -4 9 C-5.70702735 8.93003986 -7.41668003 8.91559846 -9.125 8.9375 C-10.03507813 8.94652344 -10.94515625 8.95554687 -11.8828125 8.96484375 C-12.93082031 8.98224609 -12.93082031 8.98224609 -14 9 C-14 8.67 -14 8.34 -14 8 C-12.1746875 7.9071875 -12.1746875 7.9071875 -10.3125 7.8125 C-5.82616536 7.27159441 -3.85235259 5.54383201 -1 2 C-0.67 1.34 -0.34 0.68 0 0 Z " fill="#FAE6CF" transform="translate(146,38)"/>
<path d="M0 0 C0.99 0 1.98 0 3 0 C3.33 3.3 3.66 6.6 4 10 C4.99 10 5.98 10 7 10 C7.33 6.7 7.66 3.4 8 0 C8.66 0 9.32 0 10 0 C10.05395478 1.62463842 10.09277195 3.24978541 10.125 4.875 C10.14820313 5.77992187 10.17140625 6.68484375 10.1953125 7.6171875 C10 10 10 10 8 12 C5 12.3125 5 12.3125 2 12 C-0.13586678 8.79619983 -0.23132175 7.98060033 -0.125 4.3125 C-0.10695312 3.50425781 -0.08890625 2.69601563 -0.0703125 1.86328125 C-0.04710937 1.24839844 -0.02390625 0.63351563 0 0 Z " fill="#9AD0E6" transform="translate(213,71)"/>
<path d="M0 0 C1.65 0 3.3 0 5 0 C6.0625 1.8125 6.0625 1.8125 7 4 C6.67 4.99 6.34 5.98 6 7 C7.37249963 9.67676547 7.37249963 9.67676547 9 12 C6.04590299 10.62845496 3.55991624 9.01136276 1 7 C1.33 8.65 1.66 10.3 2 12 C1.01 11.67 0.02 11.34 -1 11 C-0.67 7.37 -0.34 3.74 0 0 Z " fill="#C0E2F1" transform="translate(260,71)"/>
<path d="M0 0 C1.65 0 3.3 0 5 0 C6.0625 1.8125 6.0625 1.8125 7 4 C6.67 4.99 6.34 5.98 6 7 C7.37249963 9.67676547 7.37249963 9.67676547 9 12 C6.04590299 10.62845496 3.55991624 9.01136276 1 7 C0.67 8.32 0.34 9.64 0 11 C0 7.37 0 3.74 0 0 Z " fill="#B087A6" transform="translate(183,71)"/>
<path d="M0 0 C0.12375 0.639375 0.2475 1.27875 0.375 1.9375 C0.58125 2.618125 0.7875 3.29875 1 4 C1.66 4.33 2.32 4.66 3 5 C2.34 5 1.68 5 1 5 C0.7525 5.825 0.505 6.65 0.25 7.5 C-1.18704811 11.52373471 -3.02354515 15.21979024 -5 19 C-5.99 18.67 -6.98 18.34 -8 18 C-6.65150163 13.64029169 -4.95092154 9.68658562 -2.875 5.625 C-2.33617188 4.56539062 -1.79734375 3.50578125 -1.2421875 2.4140625 C-0.83226563 1.61742188 -0.42234375 0.82078125 0 0 Z " fill="#FCE8D1" transform="translate(92,23)"/>
<path d="M0 0 C2.97 1.65 5.94 3.3 9 5 C7.68 5.33 6.36 5.66 5 6 C6.84916079 10.06815373 8.66442368 13.0094833 12 16 C8 16 8 16 6.11328125 14.27734375 C2.40710881 9.4617314 0.13076747 6.14607107 0 0 Z " fill="#EE7928" transform="translate(14,47)"/>
<path d="M0 0 C0.66 0 1.32 0 2 0 C2.33 5.28 2.66 10.56 3 16 C1.66666667 13.33333333 0.33333333 10.66666667 -1 8 C-1.99 9.98 -2.98 11.96 -4 14 C-4.66 14 -5.32 14 -6 14 C-4.50829734 9.0276578 -2.39542583 4.58154261 0 0 Z " fill="#DD793E" transform="translate(93,28)"/>
<path d="M0 0 C0.66 0 1.32 0 2 0 C2 1.65 2 3.3 2 5 C3.98 5 5.96 5 8 5 C8 3.35 8 1.7 8 0 C8.66 0 9.32 0 10 0 C10 3.96 10 7.92 10 12 C9.34 12 8.68 12 8 12 C8 10.02 8 8.04 8 6 C6.02 6 4.04 6 2 6 C2 7.98 2 9.96 2 12 C1.34 12 0.68 12 0 12 C0 8.04 0 4.08 0 0 Z " fill="#FEE4C2" transform="translate(131,71)"/>
<path d="M0 0 C0 0.33 0 0.66 0 1 C-1.5778125 1.0928125 -1.5778125 1.0928125 -3.1875 1.1875 C-7.7049319 2.15023139 -9.12257842 3.46488206 -12 7 C-13.29519995 9.16620544 -13.29519995 9.16620544 -14 11 C-14 9.35 -14 7.7 -14 6 C-15.32 6.33 -16.64 6.66 -18 7 C-12.88790738 -0.27490104 -8.37123918 -1.58764881 0 0 Z " fill="#FCE5CD" transform="translate(31,15)"/>
<path d="M0 0 C2.9512645 1.47563225 3.06923915 3.50079352 4.125 6.5625 C4.47820313 7.57441406 4.83140625 8.58632812 5.1953125 9.62890625 C5.46085937 10.41136719 5.72640625 11.19382812 6 12 C5.01 12 4.02 12 3 12 C2.67 11.01 2.34 10.02 2 9 C-0.01508358 8.26676204 -0.01508358 8.26676204 -2 8 C-2.33 9.32 -2.66 10.64 -3 12 C-3.66 11.67 -4.32 11.34 -5 11 C-3.35 7.37 -1.7 3.74 0 0 Z " fill="#F5D6B4" transform="translate(42,71)"/>
<path d="M0 0 C0.33 0 0.66 0 1 0 C1 1.98 1 3.96 1 6 C4.63 6.33 8.26 6.66 12 7 C12 7.33 12 7.66 12 8 C8.7 8 5.4 8 2 8 C2 9.65 2 11.3 2 13 C6.95 13 11.9 13 17 13 C17 13.33 17 13.66 17 14 C11.39 14 5.78 14 0 14 C0 9.38 0 4.76 0 0 Z " fill="#1F78AB" transform="translate(220,17)"/>
<path d="M0 0 C0.66 0 1.32 0 2 0 C1.9175 1.0725 1.835 2.145 1.75 3.25 C1.63762783 7.04009265 1.63762783 7.04009265 4 9.4375 C4.66 9.953125 5.32 10.46875 6 11 C4.68 12.32 3.36 13.64 2 15 C1.1646875 13.8553125 1.1646875 13.8553125 0.3125 12.6875 C-1.96679369 10.03859112 -3.93599872 8.61711178 -7 7 C-5.68 6.67 -4.36 6.34 -3 6 C-3 6.66 -3 7.32 -3 8 C-2.01 8 -1.02 8 0 8 C0 5.36 0 2.72 0 0 Z " fill="#FCE7D1" transform="translate(144,15)"/>
<path d="M0 0 C0.99 0.495 0.99 0.495 2 1 C2.60809019 5.31973499 2.74611248 9.64159754 3 14 C7.95 14.33 12.9 14.66 18 15 C18 15.33 18 15.66 18 16 C15.18743719 16.02684312 12.37512759 16.04676188 9.5625 16.0625 C8.76005859 16.07087891 7.95761719 16.07925781 7.13085938 16.08789062 C5.08704779 16.0965143 3.04316098 16.0522815 1 16 C0 15 0 15 -0.09765625 11.62109375 C-0.09098369 10.22652923 -0.07902532 8.83198257 -0.0625 7.4375 C-0.05798828 6.72658203 -0.05347656 6.01566406 -0.04882812 5.28320312 C-0.03700864 3.52209987 -0.01907263 1.76103964 0 0 Z " fill="#237DB0" transform="translate(220,34)"/>
<path d="M0 0 C-0.33 0.99 -0.66 1.98 -1 3 C-1.33 2.67 -1.66 2.34 -2 2 C-3.66617115 1.95936168 -5.33388095 1.957279 -7 2 C-7.04241723 4.33294775 -7.04092937 6.66702567 -7 9 C-5.87465895 10.35618499 -5.87465895 10.35618499 -2.9375 10.0625 C-1.968125 10.041875 -0.99875 10.02125 0 10 C0 10.66 0 11.32 0 12 C-6.3 12.48461538 -6.3 12.48461538 -9.4375 10.3125 C-11.30408821 7.54994945 -11.58649994 6.26764255 -11 3 C-8.63169142 -1.2925593 -4.30785219 -0.21186158 0 0 Z " fill="#F4CBA8" transform="translate(125,71)"/>
<path d="M0 0 C2.31 0 4.62 0 7 0 C7 0.66 7 1.32 7 2 C5.68 1.67 4.36 1.34 3 1 C3 2.32 3 3.64 3 5 C3.99 5.33 4.98 5.66 6 6 C5.01 6 4.02 6 3 6 C3 7.98 3 9.96 3 12 C2.01 12 1.02 12 0 12 C0 8.04 0 4.08 0 0 Z " fill="#EBBE9C" transform="translate(153,71)"/>
<path d="M0 0 C0.66 0 1.32 0 2 0 C1.25 7.75 1.25 7.75 -1 10 C-5.28344952 10.48953709 -8.93446367 9.27546238 -13 8 C-13 7.67 -13 7.34 -13 7 C-12.07767578 6.94392578 -12.07767578 6.94392578 -11.13671875 6.88671875 C-10.32847656 6.82097656 -9.52023437 6.75523438 -8.6875 6.6875 C-7.88699219 6.62949219 -7.08648437 6.57148437 -6.26171875 6.51171875 C-3.58013375 5.90500435 -2.6646627 5.15637846 -1 3 C-0.67 2.01 -0.34 1.02 0 0 Z " fill="#BEE0F0" transform="translate(284,43)"/>
<path d="M0 0 C0.33 0 0.66 0 1 0 C1.09796875 0.62648437 1.1959375 1.25296875 1.296875 1.8984375 C1.44640625 2.71570312 1.5959375 3.53296875 1.75 4.375 C1.88921875 5.18710937 2.0284375 5.99921875 2.171875 6.8359375 C2.92097496 9.52342062 2.92097496 9.52342062 7 11 C3.04 11 -0.92 11 -5 11 C-5 8.03 -5 5.06 -5 2 C-4.34 2 -3.68 2 -3 2 C-3 4.31 -3 6.62 -3 9 C-2.01 8.67 -1.02 8.34 0 8 C0 5.36 0 2.72 0 0 Z " fill="#FEE4C8" transform="translate(102,42)"/>
<path d="M0 0 C1.65 0.33 3.3 0.66 5 1 C5 1.99 5 2.98 5 4 C6.32 3.67 7.64 3.34 9 3 C8.67 3.99 8.34 4.98 8 6 C6.0625 5.6875 6.0625 5.6875 4 5 C3.67 4.01 3.34 3.02 3 2 C0.64046906 4.35953094 0.50858587 5.77895617 0 9 C-2.475 8.01 -2.475 8.01 -5 7 C-4.34 5.68 -3.68 4.36 -3 3 C-2.34 3.33 -1.68 3.66 -1 4 C-0.67 2.68 -0.34 1.36 0 0 Z " fill="#AF6229" transform="translate(40,79)"/>
<path d="M0 0 C0.66 0 1.32 0 2 0 C2.53181175 2.24743045 3.05007126 4.49807102 3.5625 6.75 C3.85253906 8.00296875 4.14257812 9.2559375 4.44140625 10.546875 C4.93444283 13.59473748 5.07666879 15.17641828 4 18 C2.66666667 14 1.33333333 10 0 6 C-0.33 6.66 -0.66 7.32 -1 8 C-1.66 8 -2.32 8 -3 8 C-1.125 2.25 -1.125 2.25 0 0 Z " fill="#FADDC3" transform="translate(96,14)"/>
<path d="M0 0 C1.98 0 3.96 0 6 0 C6 1.98 6 3.96 6 6 C7.32 5.67 8.64 5.34 10 5 C10 5.66 10 6.32 10 7 C8.02 7 6.04 7 4 7 C4 5.35 4 3.7 4 2 C3.34 2 2.68 2 2 2 C2 3.65 2 5.3 2 7 C0.35 7 -1.3 7 -3 7 C-2.01 6.67 -1.02 6.34 0 6 C0 4.02 0 2.04 0 0 Z " fill="#A95F2F" transform="translate(133,77)"/>
<path d="M0 0 C4.875 4.75 4.875 4.75 6 7 C5.01 7.495 5.01 7.495 4 8 C3.59270772 10.32156597 3.25561323 12.6568787 3 15 C2.34 15 1.68 15 1 15 C1.0825 13.9275 1.165 12.855 1.25 11.75 C1.36237217 7.95990735 1.36237217 7.95990735 -1 5.5625 C-1.66 5.046875 -2.32 4.53125 -3 4 C-2.01 4 -1.02 4 0 4 C0 2.68 0 1.36 0 0 Z " fill="#FCE8D4" transform="translate(123,39)"/>
<path d="M0 0 C0.33 0 0.66 0 1 0 C1.49879865 13.77238507 1.49879865 13.77238507 -2.5 18.9375 C-4 20 -4 20 -6 20 C-6 20.66 -6 21.32 -6 22 C-7.32 21.67 -8.64 21.34 -10 21 C-8.6078125 19.9790625 -8.6078125 19.9790625 -7.1875 18.9375 C-2.41756795 14.92130721 -1.01501157 10.10979554 -0.3125 4.0625 C-0.19727993 2.709229 -0.0891201 1.35524008 0 0 Z " fill="#D57E47" transform="translate(51,29)"/>
<path d="M0 0 C1.98 0 3.96 0 6 0 C5.67 0.66 5.34 1.32 5 2 C4.01 1.67 3.02 1.34 2 1 C2 2.32 2 3.64 2 5 C3.32 5 4.64 5 6 5 C5.67 5.66 5.34 6.32 5 7 C4.01 6.67 3.02 6.34 2 6 C2 7.65 2 9.3 2 11 C3.32 11.33 4.64 11.66 6 12 C4.02 12 2.04 12 0 12 C0 8.04 0 4.08 0 0 Z " fill="#C0E4F4" transform="translate(274,71)"/>
<path d="M0 0 C1.77049689 -0.05410687 3.54146849 -0.09284119 5.3125 -0.125 C6.29863281 -0.14820313 7.28476562 -0.17140625 8.30078125 -0.1953125 C11 0 11 0 14 2 C13.67 3.65 13.34 5.3 13 7 C11.96875 6.38125 10.9375 5.7625 9.875 5.125 C6.68527517 3.29301955 3.54111979 2.0364253 0 1 C0 0.67 0 0.34 0 0 Z " fill="#FEEDDA" transform="translate(27,14)"/>
<path d="M0 0 C0.33 0 0.66 0 1 0 C1 5.28 1 10.56 1 16 C-0.98 16 -2.96 16 -5 16 C-4.67 14.35 -4.34 12.7 -4 11 C-3.01 11 -2.02 11 -1 11 C-0.67 7.37 -0.34 3.74 0 0 Z " fill="#1B5A89" transform="translate(273,71)"/>
<path d="M0 0 C1.98 0 3.96 0 6 0 C5.67 0.66 5.34 1.32 5 2 C4.01 1.67 3.02 1.34 2 1 C2 2.32 2 3.64 2 5 C3.32 5.33 4.64 5.66 6 6 C4.68 6 3.36 6 2 6 C2 7.65 2 9.3 2 11 C3.32 11.33 4.64 11.66 6 12 C4.02 12 2.04 12 0 12 C0 8.04 0 4.08 0 0 Z " fill="#FDD7B0" transform="translate(27,71)"/>
<path d="M0 0 C1.98 0 3.96 0 6 0 C4.68 0.33 3.36 0.66 2 1 C2 2.32 2 3.64 2 5 C3.32 5.33 4.64 5.66 6 6 C4.68 6 3.36 6 2 6 C2 7.65 2 9.3 2 11 C3.32 11.33 4.64 11.66 6 12 C4.02 12 2.04 12 0 12 C0 8.04 0 4.08 0 0 Z " fill="#FAD1AD" transform="translate(103,71)"/>
<path d="M0 0 C3.125 0.375 3.125 0.375 6 1 C6 4.3 6 7.6 6 11 C5.34 10.01 4.68 9.02 4 8 C2.68733482 6.64631404 1.35432675 5.31200404 0 4 C-0.66 3.34 -1.32 2.68 -2 2 C-1.34 1.34 -0.68 0.68 0 0 Z " fill="#D4F1F9" transform="translate(279,14)"/>
<path d="M0 0 C1.0209375 0.433125 1.0209375 0.433125 2.0625 0.875 C5.32893093 2.12597355 8.62846123 3.07447955 12 4 C12 4.33 12 4.66 12 5 C9.89611431 5.05402274 7.79183286 5.09280256 5.6875 5.125 C3.92986328 5.15980469 3.92986328 5.15980469 2.13671875 5.1953125 C-1 5 -1 5 -4 3 C-2.68 2.67 -1.36 2.34 0 2 C0 1.34 0 0.68 0 0 Z " fill="#D2EDF5" transform="translate(266,48)"/>
<path d="M0 0 C0.33 0 0.66 0 1 0 C1.57852281 14.24880262 1.57852281 14.24880262 -2 20 C-4.1875 21.4375 -4.1875 21.4375 -6 22 C-6 21.34 -6 20.68 -6 20 C-5.34 20 -4.68 20 -4 20 C-4 19.34 -4 18.68 -4 18 C-3.34 18 -2.68 18 -2 18 C-2.020625 17.05125 -2.04125 16.1025 -2.0625 15.125 C-2 12 -2 12 -1 10 C-0.77377919 8.29636178 -0.59111527 6.58671299 -0.4375 4.875 C-0.35371094 3.96492188 -0.26992188 3.05484375 -0.18359375 2.1171875 C-0.12300781 1.41851563 -0.06242187 0.71984375 0 0 Z " fill="#DC864A" transform="translate(43,27)"/>
<path d="M0 0 C1.98 0 3.96 0 6 0 C6.33 1.65 6.66 3.3 7 5 C4.03 5 1.06 5 -2 5 C-1.34 3.35 -0.68 1.7 0 0 Z " fill="#B66221" transform="translate(65,82)"/>
<path d="M0 0 C1.875 0.625 1.875 0.625 4 2 C5.125 4.9375 5.125 4.9375 6 8 C6.99 9.485 6.99 9.485 8 11 C4.20167325 10.45738189 2.30727513 9.04889927 0 6 C-0.25 2.75 -0.25 2.75 0 0 Z " fill="#D2A37A" transform="translate(55,72)"/>
<path d="M0 0 C0.33 0 0.66 0 1 0 C1 1.98 1 3.96 1 6 C1.99 6.33 2.98 6.66 4 7 C3.34 10.63 2.68 14.26 2 18 C1.67 18 1.34 18 1 18 C0.67 16.02 0.34 14.04 0 12 C-0.33 12 -0.66 12 -1 12 C-1.14285714 3.42857143 -1.14285714 3.42857143 0 0 Z " fill="#F7DABE" transform="translate(65,22)"/>
<path d="M0 0 C5.28 0 10.56 0 16 0 C16 0.99 16 1.98 16 3 C15.01 2.67 14.02 2.34 13 2 C13 2.66 13 3.32 13 4 C12.34 4 11.68 4 11 4 C11 3.01 11 2.02 11 1 C8.03 1 5.06 1 2 1 C2 1.99 2 2.98 2 4 C1.34 4 0.68 4 0 4 C0 2.68 0 1.36 0 0 Z " fill="#1B6397" transform="translate(221,17)"/>
<path d="M0 0 C3.63 0 7.26 0 11 0 C10.67 3.96 10.34 7.92 10 12 C9.67 12 9.34 12 9 12 C8.855625 10.9275 8.71125 9.855 8.5625 8.75 C8.16250558 6.08337051 7.72408076 3.58600271 7 1 C4.69 1 2.38 1 0 1 C0 0.67 0 0.34 0 0 Z " fill="#0C69A9" transform="translate(225,1)"/>
<path d="M0 0 C1.98 0 3.96 0 6 0 C5.67 0.66 5.34 1.32 5 2 C4.01 1.67 3.02 1.34 2 1 C2 2.32 2 3.64 2 5 C2.99 5.33 3.98 5.66 5 6 C4.01 6 3.02 6 2 6 C2 7.98 2 9.96 2 12 C1.34 12 0.68 12 0 12 C0 8.04 0 4.08 0 0 Z " fill="#CAE0F2" transform="translate(202,71)"/>
<path d="M0 0 C0.33 0 0.66 0 1 0 C0.90234375 2.01822917 0.8046875 4.03645833 0.70703125 6.0546875 C0.80371094 6.69664063 0.90039062 7.33859375 1 8 C1.99 8.66 2.98 9.32 4 10 C0.04 10 -3.92 10 -8 10 C-7.01 9.34 -6.02 8.68 -5 8 C-4.27034634 5.43717258 -4.27034634 5.43717258 -4 3 C-3.67 3 -3.34 3 -3 3 C-3 4.65 -3 6.3 -3 8 C-2.34 8 -1.68 8 -1 8 C-0.67 5.36 -0.34 2.72 0 0 Z " fill="#FBD8B1" transform="translate(65,43)"/>
<path d="M0 0 C4.3177458 0.50797009 8.03302114 1.19682779 12 3 C12 3.33 12 3.66 12 4 C8.7 4 5.4 4 2 4 C1.34 2.68 0.68 1.36 0 0 Z " fill="#EA6B1F" transform="translate(25,45)"/>
<path d="M0 0 C-0.66 1.65 -1.32 3.3 -2 5 C-2.66 5 -3.32 5 -4 5 C-4 8.96 -4 12.92 -4 17 C-6.48018753 14.51981247 -6.32361558 13.61484049 -6.375 10.1875 C-6.31060502 6.47942248 -6.0892369 5.14872816 -4.125 1.875 C-2 0 -2 0 0 0 Z " fill="#D6793F" transform="translate(129,24)"/>
<path d="M0 0 C2.64 0 5.28 0 8 0 C7.67 1.32 7.34 2.64 7 4 C5.02 4 3.04 4 1 4 C0.67 2.68 0.34 1.36 0 0 Z " fill="#0674B7" transform="translate(224,18)"/>
<path d="M0 0 C0.66 0 1.32 0 2 0 C2.66 0.99 3.32 1.98 4 3 C5.32 3 6.64 3 8 3 C7.67 4.32 7.34 5.64 7 7 C5.35 7.33 3.7 7.66 2 8 C2 6.35 2 4.7 2 3 C1.34 3 0.68 3 0 3 C0 2.01 0 1.02 0 0 Z " fill="#AF5D21" transform="translate(56,79)"/>
<path d="M0 0 C1.32 0.33 2.64 0.66 4 1 C4 5.95 4 10.9 4 16 C3.67 16 3.34 16 3 16 C3 12.7 3 9.4 3 6 C2.01 5.67 1.02 5.34 0 5 C0 3.35 0 1.7 0 0 Z " fill="#AB592F" transform="translate(156,72)"/>
<path d="M0 0 C2.97 0 5.94 0 9 0 C8.67 1.98 8.34 3.96 8 6 C6.68 6 5.36 6 4 6 C4 4.68 4 3.36 4 2 C3.34 2 2.68 2 2 2 C1.34 2 0.68 2 0 2 C0 1.34 0 0.68 0 0 Z " fill="#AD6230" transform="translate(25,70)"/>
<path d="M0 0 C3.63 0 7.26 0 11 0 C11 0.66 11 1.32 11 2 C7.57767028 3.14077657 4.91326783 3.09815117 1.3125 3.0625 C-0.45673828 3.04896484 -0.45673828 3.04896484 -2.26171875 3.03515625 C-3.16535156 3.02355469 -4.06898437 3.01195312 -5 3 C-5 2.67 -5 2.34 -5 2 C-3.35 1.67 -1.7 1.34 0 1 C0 0.67 0 0.34 0 0 Z " fill="#F8D8B7" transform="translate(28,50)"/>
<path d="M0 0 C0.66 0 1.32 0 2 0 C2 0.66 2 1.32 2 2 C2.928125 2.1546875 2.928125 2.1546875 3.875 2.3125 C6 3 6 3 8 6 C10.42521494 6.58189266 10.42521494 6.58189266 13.125 6.6875 C14.49011719 6.78611328 14.49011719 6.78611328 15.8828125 6.88671875 C16.58148438 6.92410156 17.28015625 6.96148437 18 7 C18 7.33 18 7.66 18 8 C7.25120591 8.86066857 7.25120591 8.86066857 3.375 5.6875 C1 3 1 3 0 0 Z " fill="#D7773C" transform="translate(19,42)"/>
<path d="M0 0 C0.33 0 0.66 0 1 0 C1 1.98 1 3.96 1 6 C2.65 5.67 4.3 5.34 6 5 C6.4640625 6.175625 6.4640625 6.175625 6.9375 7.375 C7.92875038 9.92330128 7.92875038 9.92330128 9 12 C6.04590299 10.62845496 3.55991624 9.01136276 1 7 C0.67 8.32 0.34 9.64 0 11 C0 7.37 0 3.74 0 0 Z " fill="#F3D9EE" transform="translate(183,71)"/>
<path d="M0 0 C1.65 0 3.3 0 5 0 C5.33 1.65 5.66 3.3 6 5 C4.02 5 2.04 5 0 5 C0 3.35 0 1.7 0 0 Z " fill="#FDFDF9" transform="translate(147,38)"/>
<path d="M0 0 C0.95465783 2.16967689 1.14401212 3.56328793 0.3984375 5.82421875 C-0.35870385 7.5684743 -1.17609198 9.28627131 -2 11 C-3.33333333 9.66666667 -4.66666667 8.33333333 -6 7 C-5.625 4.875 -5.625 4.875 -5 3 C-4.67 3.66 -4.34 4.32 -4 5 C-3.34 5 -2.68 5 -2 5 C-1.34 3.35 -0.68 1.7 0 0 Z " fill="#E48543" transform="translate(84,46)"/>
<path d="M0 0 C5.97976619 5.82643885 5.97976619 5.82643885 6.0625 10.625 C6.041875 11.73875 6.02125 12.8525 6 14 C5.34 13.67 4.68 13.34 4 13 C3.855625 12.071875 3.71125 11.14375 3.5625 10.1875 C2.97026536 6.8315037 2.06246855 5.60050383 0 3 C0 2.01 0 1.02 0 0 Z " fill="#BA5C1E" transform="translate(79,73)"/>
<path d="M0 0 C8.08888889 -0.46666667 8.08888889 -0.46666667 11.5625 1.3125 C13 3 13 3 13 6 C12.01 6.33 11.02 6.66 10 7 C9.34 5.35 8.68 3.7 8 2 C5.36 1.67 2.72 1.34 0 1 C0 0.67 0 0.34 0 0 Z " fill="#0A5893" transform="translate(270,17)"/>
<path d="M0 0 C0.33 0 0.66 0 1 0 C1.14285714 8.57142857 1.14285714 8.57142857 0 12 C-0.66 12 -1.32 12 -2 12 C-2.17835515 7.45194365 -1.99785435 4.1205746 0 0 Z " fill="#FFFAED" transform="translate(64,39)"/>
<path d="M0 0 C2 1 2 1 2.6875 2.625 C3.115033 5.87425079 2.55596842 8.78773804 2 12 C1.34 12 0.68 12 0 12 C0 8.04 0 4.08 0 0 Z " fill="#EDB68C" transform="translate(67,71)"/>
<path d="M0 0 C0.33 0 0.66 0 1 0 C1.33 3.3 1.66 6.6 2 10 C2.66 9.67 3.32 9.34 4 9 C4.33 9.99 4.66 10.98 5 12 C3.35 12.33 1.7 12.66 0 13 C0 8.71 0 4.42 0 0 Z " fill="#10507D" transform="translate(246,69)"/>
<path d="M0 0 C2.97 1.65 5.94 3.3 9 5 C7.68 5.33 6.36 5.66 5 6 C4.67 6.66 4.34 7.32 4 8 C0 2.25 0 2.25 0 0 Z " fill="#DC7533" transform="translate(14,47)"/>
<path d="M0 0 C0 0.66 0 1.32 0 2 C-0.66 2 -1.32 2 -2 2 C-2 2.66 -2 3.32 -2 4 C-1.01 4 -0.02 4 1 4 C0.67 4.99 0.34 5.98 0 7 C-1.98 5.68 -3.96 4.36 -6 3 C-4.60722783 0.21445565 -3.01148006 0 0 0 Z " fill="#E56E21" transform="translate(59,50)"/>
<path d="M0 0 C1.67542976 0.28604898 3.34385343 0.61781233 5 1 C2.87219421 3.34058637 0.88437779 4.70700306 -2 6 C-1.125 1.125 -1.125 1.125 0 0 Z " fill="#E66C1D" transform="translate(41,51)"/>
<path d="M0 0 C2.64465038 3.1254959 3.84414715 6.08788267 5 10 C4.34 10 3.68 10 3 10 C3 9.34 3 8.68 3 8 C2.01 7.67 1.02 7.34 0 7 C0 4.69 0 2.38 0 0 Z " fill="#DE7C3D" transform="translate(71,35)"/>
<path d="M0 0 C0.99 0 1.98 0 3 0 C3.33 1.32 3.66 2.64 4 4 C2.68 4 1.36 4 0 4 C-0.33 5.32 -0.66 6.64 -1 8 C-1.66 7.67 -2.32 7.34 -3 7 C-2.01 4.69 -1.02 2.38 0 0 Z " fill="#DEB288" transform="translate(40,75)"/>
<path d="M0 0 C2.31 1.98 4.62 3.96 7 6 C4.66666667 6 2.33333333 6 0 6 C0 4.02 0 2.04 0 0 Z " fill="#A1511E" transform="translate(69,76)"/>
<path d="M0 0 C0.66 0.33 1.32 0.66 2 1 C2 1.66 2 2.32 2 3 C-0.5 4.625 -0.5 4.625 -3 6 C-3.99 5.01 -4.98 4.02 -6 3 C-4.03533587 1.93224776 -2.03144641 0.93446535 0 0 Z " fill="#D2ECF7" transform="translate(264,14)"/>
<path d="M0 0 C0.66 0 1.32 0 2 0 C2.66 3.63 3.32 7.26 4 11 C0 8 0 8 -0.390625 5.95703125 C-0.26041667 3.97135417 -0.13020833 1.98567708 0 0 Z " fill="#AD652D" transform="translate(59,71)"/>
<path d="M0 0 C-1.29299694 2.88437779 -2.65941363 4.87219421 -5 7 C-5.99 6.67 -6.98 6.34 -8 6 C-7.0479279 4.99403703 -6.08812654 3.99538437 -5.125 3 C-4.59132813 2.443125 -4.05765625 1.88625 -3.5078125 1.3125 C-2 0 -2 0 0 0 Z " fill="#EF7828" transform="translate(81,56)"/>
<path d="M0 0 C0.33 0 0.66 0 1 0 C1.66 2.31 2.32 4.62 3 7 C4.98 7 6.96 7 9 7 C9 7.66 9 8.32 9 9 C2.64 9.36 2.64 9.36 0 7.875 C-1.49672661 5.06863762 -0.73294398 2.99840718 0 0 Z " fill="#F3C39D" transform="translate(116,74)"/>
<path d="M0 0 C0 0.99 0 1.98 0 3 C-1.98 3.99 -1.98 3.99 -4 5 C-4 5.66 -4 6.32 -4 7 C-5.32 6.67 -6.64 6.34 -8 6 C-5.36 4.02 -2.72 2.04 0 0 Z " fill="#DD793A" transform="translate(49,44)"/>
<path d="M0 0 C0.33 0 0.66 0 1 0 C1.33 2.31 1.66 4.62 2 7 C0.35 7 -1.3 7 -3 7 C-3 5.02 -3 3.04 -3 1 C-2.01 2.485 -2.01 2.485 -1 4 C-0.67 2.68 -0.34 1.36 0 0 Z " fill="#FDE9D3" transform="translate(150,31)"/>
<path d="M0 0 C1.32 1.32 2.64 2.64 4 4 C3.34 6.31 2.68 8.62 2 11 C1.67 11 1.34 11 1 11 C0.67 7.37 0.34 3.74 0 0 Z " fill="#DF6D23" transform="translate(51,27)"/>
<path d="M0 0 C2.475 0.495 2.475 0.495 5 1 C5.33 2.32 5.66 3.64 6 5 C4.35 5.66 2.7 6.32 1 7 C1 6.34 1 5.68 1 5 C1.66 5 2.32 5 3 5 C2.2236068 1.9254644 2.2236068 1.9254644 0 0 Z " fill="#FDE8D0" transform="translate(150,24)"/>
<path d="M0 0 C2.1640625 -0.29296875 2.1640625 -0.29296875 4.625 -0.1875 C5.44226563 -0.16042969 6.25953125 -0.13335937 7.1015625 -0.10546875 C8.04128906 -0.05326172 8.04128906 -0.05326172 9 0 C5.36383344 1.9789756 2.11574371 2.5251065 -2 3 C-1.34 2.01 -0.68 1.02 0 0 Z " fill="#DC7C45" transform="translate(24,16)"/>
<path d="M0 0 C3 1 3 1 4.1875 3.0625 C4.455625 3.701875 4.72375 4.34125 5 5 C3.35 5 1.7 5 0 5 C0 3.35 0 1.7 0 0 Z " fill="#1F597F" transform="translate(276,77)"/>
<path d="M0 0 C1.32 0.33 2.64 0.66 4 1 C3.67 2.32 3.34 3.64 3 5 C2.01 5 1.02 5 0 5 C0 3.35 0 1.7 0 0 Z " fill="#375D7B" transform="translate(261,72)"/>
<path d="M0 0 C0.66 0 1.32 0 2 0 C2 2.64 2 5.28 2 8 C1.34 7.01 0.68 6.02 0 5 C-0.99 5.495 -0.99 5.495 -2 6 C-1.34 4.02 -0.68 2.04 0 0 Z " fill="#D08C5E" transform="translate(93,28)"/>
</svg>
